<?xml version="1.0" encoding="UTF-8"?>
<svg version="1.1" xmlns="http://www.w3.org/2000/svg" width="2400" height="1669">
<path d="M0 0 C137.94 0 275.88 0 418 0 C432.66723009 20.30847243 432.66723009 20.30847243 438 28 C443.01061679 35.19247813 448.09758909 42.32381158 453.24389648 49.41967773 C459.40564272 57.92268117 465.44037865 66.51420197 471.47949219 75.10449219 C477.10578241 83.10443155 482.76278215 91.07912504 488.5 99 C495.24330241 108.30988792 501.86834714 117.70052019 508.47949219 127.10449219 C514.10578241 135.10443155 519.76278215 143.07912504 525.5 151 C532.24330241 160.30988792 538.86834714 169.70052019 545.47949219 179.10449219 C551.10578241 187.10443155 556.76278215 195.07912504 562.5 203 C569.24330241 212.30988792 575.86834714 221.70052019 582.47949219 231.10449219 C588.06268704 239.04315487 593.67689541 246.95580112 599.375 254.8125 C604.58528815 261.99724602 609.68980729 269.25087183 614.76464844 276.53173828 C619.19359393 282.87513911 623.70183484 289.15696176 628.24389648 295.41967773 C634.40564272 303.92268117 640.44037865 312.51420197 646.47949219 321.10449219 C652.06268704 329.04315487 657.67689541 336.95580112 663.375 344.8125 C668.58528815 351.99724602 673.68980729 359.25087183 678.76464844 366.53173828 C683.19417512 372.87597153 687.70232196 379.15913413 692.24609375 385.421875 C696.37511062 391.11810996 700.43922096 396.85749806 704.48535156 402.61279297 C708.0743202 407.70950448 711.71440386 412.76705183 715.375 417.8125 C720.58542777 424.9971426 725.68980941 432.25087487 730.76464844 439.53173828 C735.19359393 445.87513911 739.70183484 452.15696176 744.24389648 458.41967773 C750.40564272 466.92268117 756.44037865 475.51420197 762.47949219 484.10449219 C768.06268704 492.04315487 773.67689541 499.95580112 779.375 507.8125 C784.58528815 514.99724602 789.68980729 522.25087183 794.76464844 529.53173828 C799.19359393 535.87513911 803.70183484 542.15696176 808.24389648 548.41967773 C814.40564272 556.92268117 820.44037865 565.51420197 826.47949219 574.10449219 C832.06268704 582.04315487 837.67689541 589.95580112 843.375 597.8125 C848.58528815 604.99724602 853.68980729 612.25087183 858.76464844 619.53173828 C863.19207994 625.87297069 867.69827756 632.15302219 872.23950195 638.41308594 C876.43749216 644.20509562 880.57474474 650.03778444 884.69189453 655.88745117 C887.77741877 660.27077364 890.8790063 664.64186691 894 669 C897.62829747 674.06652841 901.22577808 679.1539678 904.8125 684.25 C908.95670099 690.13614991 913.14798703 695.98557572 917.375 701.8125 C922.58537745 708.99718002 927.6898086 716.25087371 932.76464844 723.53173828 C937.19359393 729.87513911 941.70183484 736.15696176 946.24389648 742.41967773 C952.40564272 750.92268117 958.44037865 759.51420197 964.47949219 768.10449219 C970.06268704 776.04315487 975.67689541 783.95580112 981.375 791.8125 C986.58528815 798.99724602 991.68980729 806.25087183 996.76464844 813.53173828 C1001.19359393 819.87513911 1005.70183484 826.15696176 1010.24389648 832.41967773 C1016.40564272 840.92268117 1022.44037865 849.51420197 1028.47949219 858.10449219 C1034.6433473 866.86878716 1040.85741881 875.59275544 1047.14428711 884.26928711 C1051.30388618 890.01704034 1055.40336723 895.80493983 1059.48266602 901.60986328 C1063.08839006 906.73220107 1066.75413493 911.80830712 1070.4375 916.875 C1074.94104327 923.07528653 1079.3210701 929.34715117 1083.625 935.6875 C1087.933847 942.0345408 1092.34370633 948.2816097 1096.91113281 954.44482422 C1100.29890021 959.0218621 1103.60225615 963.65261174 1106.875 968.3125 C1110.99611495 974.17970315 1115.16384322 980.00959973 1119.375 985.8125 C1124.5855171 992.99707657 1129.68981073 1000.25087676 1134.76464844 1007.53173828 C1139.19207994 1013.87297069 1143.69827756 1020.15302219 1148.23950195 1026.41308594 C1152.43534129 1032.20212804 1156.5710052 1038.03146403 1160.68530273 1043.87866211 C1164.23286294 1048.91943604 1167.80908021 1053.93871695 1171.4050293 1058.94506836 C1173.48560555 1061.8499201 1175.53710354 1064.7709538 1177.55078125 1067.72265625 C1177.96239502 1068.3249707 1178.37400879 1068.92728516 1178.7980957 1069.54785156 C1179.93202145 1071.21269318 1181.05995481 1072.88161168 1182.1875 1074.55078125 C1183.76748043 1077.0724643 1183.76748043 1077.0724643 1186 1078 C1186.28125732 1077.41549072 1186.56251465 1076.83098145 1186.85229492 1076.22875977 C1187.91745396 1074.1602984 1189.07081312 1072.27206199 1190.36328125 1070.33984375 C1190.83088867 1069.63899658 1191.29849609 1068.93814941 1191.78027344 1068.21606445 C1192.2859082 1067.46413818 1192.79154297 1066.71221191 1193.3125 1065.9375 C1193.84520508 1065.14239014 1194.37791016 1064.34728027 1194.92675781 1063.52807617 C1202.77320714 1051.83980164 1210.73525343 1040.23294392 1218.79931641 1028.69384766 C1225.80607247 1018.66550239 1232.66093426 1008.55082925 1239.41894531 998.35327148 C1242.88650431 993.13264972 1246.3855506 987.95047707 1250.0625 982.875 C1256.31334994 974.24588055 1262.25086951 965.40324658 1268.23828125 956.59033203 C1270.62914824 953.07493586 1273.02963173 949.56626877 1275.4375 946.0625 C1275.86643555 945.43811035 1276.29537109 944.8137207 1276.73730469 944.17041016 C1279.36642045 940.35120303 1282.01406939 936.54539279 1284.671875 932.74609375 C1292.39544866 921.6981371 1300.00893143 910.59234797 1307.4206543 899.33203125 C1310.50726679 894.65978853 1313.65375477 890.06056734 1316.96875 885.546875 C1321.17162799 879.82142191 1325.0961954 873.93195308 1329 868 C1333.51939139 861.13264355 1338.14192319 854.38989093 1343.00878906 847.76416016 C1346.44025086 843.00067188 1349.64671406 838.08988788 1352.875 833.1875 C1357.22391005 826.62228475 1361.56912887 820.0670074 1366.1875 813.6875 C1370.20692359 808.12478236 1374.15815831 802.5192103 1378.0625 796.875 C1378.92234497 795.64656372 1378.92234497 795.64656372 1379.79956055 794.39331055 C1380.59680542 793.23569214 1380.59680542 793.23569214 1381.41015625 792.0546875 C1381.88590088 791.36874512 1382.36164551 790.68280273 1382.85180664 789.97607422 C1384.05117867 787.91192002 1384.72612227 786.37261468 1385 784 C1383.57621407 781.50148533 1382.13052496 779.30603147 1380.4375 777 C1379.69246216 775.95211304 1379.69246216 775.95211304 1378.93237305 774.88305664 C1377.85586869 773.36930032 1376.77436218 771.85909168 1375.68847656 770.35205078 C1373.44041474 767.22049676 1371.23513017 764.05998478 1369.02954102 760.8984375 C1367.26969472 758.37614961 1365.5043914 755.85774886 1363.73828125 753.33984375 C1359.8116648 747.73618074 1355.90493676 742.11878318 1352 736.5 C1345.25939811 726.80305056 1338.49518574 717.12290767 1331.71777344 707.45166016 C1328.8103791 703.30213572 1325.90531999 699.15097694 1323 695 C1321.83334425 693.33332569 1320.66667759 691.66665902 1319.5 690 C1298.50000002 660.00000002 1298.50000002 660.00000002 1296.74951172 657.49926758 C1295.58451636 655.83501172 1294.4194774 654.17078639 1293.25439453 652.5065918 C1290.31179589 648.30329077 1287.36999096 644.09943819 1284.4296875 639.89453125 C1279.01119741 632.14714529 1273.58572408 624.40518775 1268.125 616.6875 C1262.68047181 608.9914268 1257.29999761 601.25145367 1251.92236328 593.50854492 C1247.97097257 587.82270761 1244.00153807 582.1506443 1240 576.5 C1234.65114803 568.94550195 1229.36367892 561.34907645 1224.08227539 553.74731445 C1216.85331628 543.3439483 1209.58554324 532.96791047 1202.3137207 522.59448242 C1198.63272573 517.34043037 1194.96560528 512.07693717 1191.30615234 506.80786133 C1185.37974071 498.27530909 1179.43481957 489.75698317 1173.43432617 481.27636719 C1167.85416215 473.38765577 1162.31951511 465.46717659 1156.78222656 457.54833984 C1153.85623267 453.3645694 1150.9280169 449.18235476 1148 445 C1146.83332241 443.33334098 1145.66665575 441.66667431 1144.5 440 C1143.9225 439.175 1143.345 438.35 1142.75 437.5 C1141 435 1139.25 432.5 1137.5 430 C1136.92266113 429.1752417 1136.34532227 428.3504834 1135.75048828 427.50073242 C1134.58215033 425.83165493 1133.41385616 424.16254678 1132.24560547 422.4934082 C1129.35486511 418.36337662 1126.46340146 414.23385554 1123.5703125 410.10546875 C1116.68271938 400.27499493 1109.81705622 390.42957704 1102.96582031 380.57373047 C1096.90500679 371.85746626 1090.81929621 363.15881308 1084.7265625 354.46484375 C1082.9622998 351.94617913 1081.19966774 349.42638072 1079.4375 346.90625 C1074.01666095 339.15477654 1068.58836038 331.409074 1063.125 323.6875 C1057.73147193 316.06210458 1052.39676716 308.39639128 1047.06738281 300.72607422 C1040.9714002 291.9534881 1034.84844736 283.20002344 1028.71777344 274.45166016 C1025.8103791 270.30213572 1022.90531999 266.15097694 1020 262 C1018.83334425 260.33332569 1017.66667759 258.66665902 1016.5 257 C981.5 207 946.5 157 911.5 107 C910.92266113 106.1752417 910.34532227 105.3504834 909.75048828 104.50073242 C908.58215033 102.83165493 907.41385616 101.16254678 906.24560547 99.4934082 C903.35486511 95.36337662 900.46340146 91.23385554 897.5703125 87.10546875 C890.68271938 77.27499493 883.81705622 67.42957704 876.96582031 57.57373047 C870.9152148 48.87214676 864.83980545 40.18810886 858.75732422 31.50878906 C856.90074926 28.85830778 855.04588562 26.2066354 853.19140625 23.5546875 C852.56314941 22.65645264 851.93489258 21.75821777 851.28759766 20.83276367 C850.09302082 19.12476156 848.89866867 17.41660226 847.70458984 15.70825195 C847.16141113 14.9318335 846.61823242 14.15541504 846.05859375 13.35546875 C845.28684814 12.25017822 845.28684814 12.25017822 844.49951172 11.12255859 C843.50892548 9.72038394 842.50549505 8.32718567 841.48876953 6.94384766 C838 2.19623113 838 2.19623113 838 0 C891.2645351 -0.98613792 944.52814147 -1.74286225 997.80002351 -2.19580917 C1004.1016419 -2.24958383 1010.40324236 -2.30524024 1016.70483398 -2.36206055 C1017.95926642 -2.3733399 1019.21369885 -2.38461924 1020.50614438 -2.39624039 C1040.7683881 -2.58290915 1061.02533863 -2.92166938 1081.28445109 -3.31757023 C1102.10247836 -3.72097282 1122.91775196 -3.95878598 1143.73952657 -4.04580528 C1155.42508439 -4.09931754 1167.0995505 -4.22807708 1178.78114891 -4.54639244 C1254.64409948 -6.55495888 1254.64409948 -6.55495888 1269.51190323 6.73776251 C1278.00272846 15.80686427 1283.10351807 26.40683044 1287.15391922 38.03965092 C1289.44890303 44.57006837 1293.04155012 49.7658499 1297.15625 55.3125 C1298.24421137 56.9491568 1299.32354816 58.59162453 1300.38916016 60.24291992 C1312.49496733 78.75834841 1324.77933396 97.1476268 1337.19726562 115.45507812 C1343.42781228 124.64824736 1349.57065825 133.88697386 1355.56958008 143.2331543 C1359.23461181 148.93444761 1363.01464331 154.55914871 1366.78753662 160.18936157 C1368.76161026 163.1373546 1370.72816909 166.09034881 1372.6953125 169.04296875 C1375.65478668 173.48385708 1378.61608637 177.92350712 1381.5819397 182.36013794 C1390.04550701 195.02123446 1398.4933053 207.69216035 1406.859375 220.41796875 C1407.44442307 221.30785995 1408.02947113 222.19775116 1408.63224792 223.11460876 C1409.83316513 224.94143714 1411.03406729 226.76827541 1412.23495483 228.59512329 C1423.14979765 245.1976773 1434.17206405 261.72121305 1445.31057739 278.17449951 C1455.09264597 292.62881961 1464.73273031 307.17123503 1474.3125 321.76025391 C1483.27704987 335.40752527 1492.34634601 348.97890825 1501.5 362.5 C1513.34951956 380.00397985 1525.02855524 397.61498171 1536.6317749 415.2830658 C1547.42167549 431.71014254 1558.31897869 448.06329469 1569.375 464.3125 C1570.22664679 465.56569793 1571.07820915 466.81895324 1571.9296875 468.07226562 C1573.95216673 471.0488293 1575.9757358 474.02464984 1578 477 C1580.73661778 474.31719855 1583.38494058 471.70036319 1585.65625 468.609375 C1586.11443115 467.9913501 1586.5726123 467.3733252 1587.04467773 466.73657227 C1587.52493408 466.08100342 1588.00519043 465.42543457 1588.5 464.75 C1589.56305943 463.31585546 1590.62688736 461.88228032 1591.69140625 460.44921875 C1592.23684082 459.71364746 1592.78227539 458.97807617 1593.34423828 458.22021484 C1596.01121622 454.64405775 1598.72293432 451.10259563 1601.4375 447.5625 C1601.97697266 446.85834961 1602.51644531 446.15419922 1603.07226562 445.42871094 C1604.16757695 443.99933618 1605.26311745 442.570137 1606.35888672 441.14111328 C1609.07575426 437.59649437 1611.78765191 434.0480776 1614.5 430.5 C1617.71417695 426.29636451 1620.92867257 422.09297412 1624.14453125 417.890625 C1630.10518774 410.10046008 1636.05682511 402.30351171 1642 394.5 C1648.46422508 386.0123386 1654.93956084 377.53327708 1661.42333984 369.06054688 C1664.1163821 365.54099335 1666.8081138 362.02043774 1669.5 358.5 C1670.58332729 357.08332872 1671.66666062 355.66666204 1672.75 354.25 C1673.28625 353.54875 1673.8225 352.8475 1674.375 352.125 C1679.24999999 345.75000001 1679.24999999 345.75000001 1680.87426758 343.62597656 C1681.96006647 342.20607316 1683.04584112 340.78615122 1684.1315918 339.36621094 C1686.80200585 335.87391567 1689.47280895 332.38191954 1692.14453125 328.890625 C1698.10518774 321.10046008 1704.05682511 313.30351171 1710 305.5 C1716.46422508 297.0123386 1722.93956084 288.53327708 1729.42333984 280.06054688 C1732.1163821 276.54099335 1734.8081138 273.02043774 1737.5 269.5 C1738.58332729 268.08332872 1739.66666062 266.66666204 1740.75 265.25 C1741.28625 264.54875 1741.8225 263.8475 1742.375 263.125 C1747.24999996 256.75000005 1747.24999996 256.75000005 1748.87426758 254.62597656 C1749.96006647 253.20607316 1751.04584112 251.78615122 1752.1315918 250.36621094 C1754.80200585 246.87391567 1757.47280895 243.38191954 1760.14453125 239.890625 C1766.10518774 232.10046008 1772.05682511 224.30351171 1778 216.5 C1784.46422508 208.0123386 1790.93956084 199.53327708 1797.42333984 191.06054688 C1800.1163821 187.54099335 1802.8081138 184.02043774 1805.5 180.5 C1806.58332729 179.08332872 1807.66666062 177.66666204 1808.75 176.25 C1809.28625 175.54875 1809.8225 174.8475 1810.375 174.125 C1815.25 167.75 1815.25 167.75 1816.87426758 165.62597656 C1817.96006647 164.20607316 1819.04584112 162.78615122 1820.1315918 161.36621094 C1822.80200585 157.87391567 1825.47280895 154.38191954 1828.14453125 150.890625 C1834.10518774 143.10046008 1840.05682511 135.30351171 1846 127.5 C1852.46422508 119.0123386 1858.93956084 110.53327708 1865.42333984 102.06054688 C1868.1163821 98.54099335 1870.8081138 95.02043774 1873.5 91.5 C1874.58332729 90.08332872 1875.66666062 88.66666204 1876.75 87.25 C1877.28625 86.54875 1877.8225 85.8475 1878.375 85.125 C1883.24999999 78.75000002 1883.24999999 78.75000002 1884.87426758 76.62597656 C1885.96006647 75.20607316 1887.04584112 73.78615122 1888.1315918 72.36621094 C1890.80200585 68.87391567 1893.47280895 65.38191954 1896.14453125 61.890625 C1902.78748479 53.20874513 1909.41875466 44.51805808 1916.0402832 35.81982422 C1919.22861302 31.63261527 1922.42040461 27.44821534 1925.625 23.2734375 C1926.48158203 22.15678711 1926.48158203 22.15678711 1927.35546875 21.01757812 C1928.39855388 19.6585943 1929.44269802 18.30042213 1930.48828125 16.94335938 C1930.96652344 16.32009766 1931.44476562 15.69683594 1931.9375 15.0546875 C1932.40667862 14.46366928 1932.87585725 13.87265106 1933.35925341 13.26372319 C1935.08464849 10.98687026 1935.08464849 10.98687026 1936.49206114 8.2442891 C1939.14153786 3.72536357 1941.15816984 0.56349456 1946.30703068 -1.01176202 C1950.52323121 -1.39102208 1954.6173363 -1.41561574 1958.84387207 -1.32279968 C1960.46771891 -1.32759976 1962.09155742 -1.3372372 1963.71535063 -1.35128051 C1968.16778974 -1.37583981 1972.61730981 -1.33194298 1977.06937695 -1.27672184 C1981.87364136 -1.22917179 1986.67774417 -1.24529697 1991.48217773 -1.25364685 C1999.8027287 -1.25941197 2008.1223301 -1.2249313 2016.44264221 -1.16303062 C2028.47221153 -1.07359247 2040.50132218 -1.04498085 2052.53118795 -1.03116272 C2072.04904699 -1.0070939 2091.56640004 -0.9339068 2111.08398438 -0.82983398 C2130.04229197 -0.72884856 2149.00046208 -0.65099403 2167.95898438 -0.60424805 C2169.12778485 -0.60135809 2170.29658533 -0.59846813 2171.50080401 -0.5954906 C2177.364394 -0.58113508 2183.22798496 -0.56723431 2189.09157658 -0.55355966 C2237.72806741 -0.43954479 2286.36400901 -0.24581719 2335 0 C2333.87632568 1.77023918 2332.75207498 3.54011252 2331.62757874 5.30982971 C2331.00157304 6.29546685 2330.37556734 7.28110399 2329.73059177 8.29660892 C2327.97580813 11.03779058 2326.17384825 13.73513193 2324.30859375 16.40234375 C2323.68146484 17.30146484 2323.05433594 18.20058594 2322.40820312 19.12695312 C2321.75787109 20.05443359 2321.10753906 20.98191406 2320.4375 21.9375 C2319.74205078 22.93330078 2319.04660156 23.92910156 2318.33007812 24.95507812 C2316.22244564 27.971735 2314.11165214 30.98615592 2312 34 C2310.8033193 35.70958914 2309.60670107 37.419222 2308.41015625 39.12890625 C2306.70626317 41.56300458 2305.0021423 43.99694198 2303.29736328 46.43041992 C2294.27325879 59.31450904 2285.26902318 72.21317775 2276.375 85.1875 C2271.80542314 91.8528914 2267.17747677 98.47632097 2262.53808594 105.09326172 C2256.0113425 114.40383224 2249.52187387 123.74021261 2243.03222656 133.07666016 C2239.02470701 138.8414414 2235.01455202 144.60438963 2231.00488281 150.36767578 C2227.64560511 155.19632948 2224.28698241 160.02543618 2220.9296875 164.85546875 C2214.06410311 174.73134783 2207.18631358 184.5983601 2200.28417969 194.44873047 C2193.84465798 203.64259305 2187.43875575 212.85979198 2181.03222656 222.07666016 C2177.68938945 226.88530162 2174.34460619 231.69258892 2171 236.5 C2169.66665713 238.41666003 2168.3333238 240.3333267 2167 242.25 C2159 253.75 2151 265.25 2143 276.75 C2142.33983887 277.6989917 2141.67967773 278.6479834 2140.99951172 279.62573242 C2139.66784415 281.53998423 2138.3361385 283.45420954 2137.00439453 285.3684082 C2133.64526025 290.19680432 2130.28681497 295.02567707 2126.9296875 299.85546875 C2120.06410311 309.73134783 2113.18631358 319.5983601 2106.28417969 329.44873047 C2099.84465798 338.64259305 2093.43875575 347.85979198 2087.03222656 357.07666016 C2083.68938945 361.88530162 2080.34460619 366.69258892 2077 371.5 C2075.66665713 373.41666003 2074.3333238 375.3333267 2073 377.25 C2065 388.75 2057 400.25 2049 411.75 C2048.33983887 412.6989917 2047.67967773 413.6479834 2046.99951172 414.62573242 C2045.66784415 416.53998423 2044.3361385 418.45420954 2043.00439453 420.3684082 C2039.64526025 425.19680432 2036.28681497 430.02567707 2032.9296875 434.85546875 C2026.53065091 444.06008894 2020.123309 453.25854477 2013.6875 462.4375 C2009.59664373 468.27253307 2005.52808383 474.12145502 2001.5 480 C1996.88968305 486.72825014 1992.2209989 493.41430648 1987.53857422 500.0925293 C1983.05402994 506.4899382 1978.58512677 512.89804554 1974.125 519.3125 C1973.12617798 520.74891846 1973.12617798 520.74891846 1972.10717773 522.21435547 C1970.07122076 525.14274311 1968.03555506 528.07133298 1966 531 C1958.3475623 542.00999051 1950.6941758 553.01911945 1943 564 C1933.40654949 577.69295736 1923.828317 591.39729746 1914.375 605.1875 C1909.80542314 611.8528914 1905.17747677 618.47632097 1900.53808594 625.09326172 C1896.05366819 631.49040113 1891.58495928 637.89828642 1887.125 644.3125 C1886.12617798 645.74891846 1886.12617798 645.74891846 1885.10717773 647.21435547 C1883.07122076 650.14274311 1881.03555506 653.07133298 1879 656 C1870.77870475 667.82843771 1862.55038677 679.65162503 1854.28417969 691.44873047 C1847.84465798 700.64259305 1841.43875575 709.85979198 1835.03222656 719.07666016 C1831.68938945 723.88530162 1828.34460619 728.69258892 1825 733.5 C1823.66665713 735.41666003 1822.3333238 737.3333267 1821 739.25 C1813 750.75 1805 762.25 1797 773.75 C1796.33983887 774.6989917 1795.67967773 775.6479834 1794.99951172 776.62573242 C1793.66784415 778.53998423 1792.3361385 780.45420954 1791.00439453 782.3684082 C1787.64526025 787.19680432 1784.28681497 792.02567707 1780.9296875 796.85546875 C1774.63303277 805.91296439 1768.33012158 814.96585383 1762 824 C1752.40654949 837.69295736 1742.828317 851.39729746 1733.375 865.1875 C1728.80542314 871.8528914 1724.17747677 878.47632097 1719.53808594 885.09326172 C1715.05366819 891.49040113 1710.58495928 897.89828642 1706.125 904.3125 C1705.12617798 905.74891846 1705.12617798 905.74891846 1704.10717773 907.21435547 C1702.07122076 910.14274311 1700.03555506 913.07133298 1698 916 C1689.77870475 927.82843771 1681.55038677 939.65162503 1673.28417969 951.44873047 C1666.84465798 960.64259305 1660.43875575 969.85979198 1654.03222656 979.07666016 C1650.68938945 983.88530162 1647.34460619 988.69258892 1644 993.5 C1642.66665713 995.41666003 1641.3333238 997.3333267 1640 999.25 C1632 1010.75 1624 1022.25 1616 1033.75 C1615.33983887 1034.6989917 1614.67967773 1035.6479834 1613.99951172 1036.62573242 C1612.66784415 1038.53998423 1611.3361385 1040.45420954 1610.00439453 1042.3684082 C1606.64526025 1047.19680432 1603.28681497 1052.02567707 1599.9296875 1056.85546875 C1593.63303277 1065.91296439 1587.33012158 1074.96585383 1581 1084 C1571.40654872 1097.69295846 1561.8283854 1111.39734318 1552.375 1125.1875 C1545.39109436 1135.37356441 1538.28162155 1145.47190976 1531.18847656 1155.58203125 C1524.81065959 1164.6744734 1518.44975307 1173.77645411 1512.171875 1182.93823242 C1508.00204786 1189.01545332 1503.7744938 1195.05157727 1499.54296875 1201.0859375 C1495.01349586 1207.546809 1490.50297546 1214.02063733 1486 1220.5 C1481.01256534 1227.67552447 1476.01498971 1234.84370634 1471 1242 C1461.40645643 1255.69289044 1451.82831596 1269.39729898 1442.375 1283.1875 C1437.80691696 1289.85071245 1433.1807548 1296.47217085 1428.54248047 1303.08666992 C1424.01313369 1309.54727133 1419.50275852 1316.02084398 1415 1322.5 C1409.91076867 1329.82304956 1404.80759368 1337.13599776 1399.6875 1344.4375 C1395.59660437 1350.27250515 1391.52808352 1356.12145547 1387.5 1362 C1382.88968305 1368.72825014 1378.2209989 1375.41430648 1373.53857422 1382.0925293 C1367.01172322 1391.40338277 1360.52204141 1400.73997157 1354.03222656 1410.07666016 C1350.02470701 1415.8414414 1346.01455202 1421.60438963 1342.00488281 1427.36767578 C1338.64560511 1432.19632948 1335.28698241 1437.02543618 1331.9296875 1441.85546875 C1325.06410311 1451.73134783 1318.18631358 1461.5983601 1311.28417969 1471.44873047 C1304.84465798 1480.64259305 1298.43875575 1489.85979198 1292.03222656 1499.07666016 C1288.68938945 1503.88530162 1285.34460619 1508.69258892 1282 1513.5 C1280.66665713 1515.41666003 1279.3333238 1517.3333267 1278 1519.25 C1270 1530.75 1262 1542.25 1254 1553.75 C1253.33983887 1554.6989917 1252.67967773 1555.6479834 1251.99951172 1556.62573242 C1250.66784415 1558.53998423 1249.3361385 1560.45420954 1248.00439453 1562.3684082 C1244.64526025 1567.19680432 1241.28681497 1572.02567707 1237.9296875 1576.85546875 C1231.63303277 1585.91296439 1225.33012158 1594.96585383 1219 1604 C1208.04664188 1619.63398545 1197.13684431 1635.29802537 1186.34277344 1651.04248047 C1183.83582928 1654.69714924 1181.32373919 1658.34828183 1178.8125 1662 C1177.88149062 1663.35415306 1176.95049909 1664.70831838 1176.01953125 1666.0625 C1175.35308594 1667.031875 1174.68664063 1668.00125 1174 1669 C1169.67328401 1664.95268449 1166.29801238 1660.51123355 1162.875 1655.6875 C1162.306604 1654.89351807 1161.73820801 1654.09953613 1161.15258789 1653.28149414 C1157.06748347 1647.55528207 1153.06046361 1641.7774006 1149.09301758 1635.96923828 C1144.30877247 1628.96710257 1139.4097034 1622.04763869 1134.50732422 1615.12792969 C1132.04362118 1611.64985459 1129.58378722 1608.1690515 1127.125 1604.6875 C1126.63523682 1603.99406494 1126.14547363 1603.30062988 1125.64086914 1602.58618164 C1121.14793293 1596.2195521 1116.6815515 1589.83445719 1112.21582031 1583.44873047 C1106.98800803 1575.97610194 1101.7323662 1568.52340376 1096.46777344 1561.07666016 C1093.47466609 1556.84190116 1090.48526391 1552.60452547 1087.49511719 1548.36767578 C1085.02135444 1544.86277671 1082.54679701 1541.35844533 1080.0703125 1537.85546875 C1074.09597943 1529.40242303 1068.14800966 1520.93140407 1062.21582031 1512.44873047 C1056.98800803 1504.97610194 1051.7323662 1497.52340376 1046.46777344 1490.07666016 C1043.97679014 1486.55232484 1041.48855097 1483.02605299 1039 1479.5 C1038.00001278 1478.08332432 1037.00001278 1476.66665764 1036 1475.25 C1027 1462.5 1027 1462.5 1018 1449.75 C1017.50516113 1449.0489917 1017.01032227 1448.3479834 1016.50048828 1447.62573242 C1015.49880957 1446.20666042 1014.4971821 1444.78755225 1013.49560547 1443.3684082 C1011.02170505 1439.86324726 1008.54696634 1436.35868485 1006.0703125 1432.85546875 C1000.09597943 1424.40242303 994.14800966 1415.93140407 988.21582031 1407.44873047 C982.98800803 1399.97610194 977.7323662 1392.52340376 972.46777344 1385.07666016 C969.97679014 1381.55232484 967.48855097 1378.02605299 965 1374.5 C964.00001278 1373.08332432 963.00001278 1371.66665764 962 1370.25 C960 1367.41666667 958 1364.58333333 956 1361.75 C955.50516113 1361.0489917 955.01032227 1360.3479834 954.50048828 1359.62573242 C953.49880957 1358.20666042 952.4971821 1356.78755225 951.49560547 1355.3684082 C949.02170505 1351.86324726 946.54696634 1348.35868485 944.0703125 1344.85546875 C938.09597943 1336.40242303 932.14800966 1327.93140407 926.21582031 1319.44873047 C920.98800803 1311.97610194 915.7323662 1304.52340376 910.46777344 1297.07666016 C907.97679014 1293.55232484 905.48855097 1290.02605299 903 1286.5 C902.00001278 1285.08332432 901.00001278 1283.66665764 900 1282.25 C898 1279.41666667 896 1276.58333333 894 1273.75 C893.50516113 1273.0489917 893.01032227 1272.3479834 892.50048828 1271.62573242 C891.49880957 1270.20666042 890.4971821 1268.78755225 889.49560547 1267.3684082 C887.02170505 1263.86324726 884.54696634 1260.35868485 882.0703125 1256.85546875 C876.09597943 1248.40242303 870.14800966 1239.93140407 864.21582031 1231.44873047 C858.98800803 1223.97610194 853.7323662 1216.52340376 848.46777344 1209.07666016 C845.97679014 1205.55232484 843.48855097 1202.02605299 841 1198.5 C840.00001278 1197.08332432 839.00001278 1195.66665764 838 1194.25 C832 1185.75 826 1177.25 820 1168.75 C819.50516113 1168.0489917 819.01032227 1167.3479834 818.50048828 1166.62573242 C817.49880957 1165.20666042 816.4971821 1163.78755225 815.49560547 1162.3684082 C813.02170505 1158.86324726 810.54696634 1155.35868485 808.0703125 1151.85546875 C802.09597943 1143.40242303 796.14800966 1134.93140407 790.21582031 1126.44873047 C784.50209106 1118.28153281 778.75439256 1110.13857528 773 1102 C766.04732005 1092.16665814 759.11760831 1082.31787176 752.21582031 1072.44873047 C746.98800803 1064.97610194 741.7323662 1057.52340376 736.46777344 1050.07666016 C733.47466609 1045.84190116 730.48526391 1041.60452547 727.49511719 1037.36767578 C725.02135444 1033.86277671 722.54679701 1030.35844533 720.0703125 1026.85546875 C719.08846912 1025.4661971 718.10669871 1024.07687388 717.125 1022.6875 C716.63443115 1021.99325928 716.1438623 1021.29901855 715.63842773 1020.58374023 C712.9453369 1016.76863711 710.26196949 1012.94700813 707.58984375 1009.1171875 C701.89094058 1000.94973732 696.16542984 992.80802769 690.3125 984.75 C685.81058613 978.55057673 681.41157194 972.29239105 677.09082031 965.96557617 C672.30960984 958.96946388 667.41476109 952.05527674 662.51611328 945.14111328 C660.00656081 941.59702711 657.50356599 938.04831628 655 934.5 C652.02479257 930.28419722 649.04900204 926.06881217 646.0703125 921.85546875 C640.09597943 913.40242303 634.14800966 904.93140407 628.21582031 896.44873047 C622.98800803 888.97610194 617.7323662 881.52340376 612.46777344 874.07666016 C609.97679014 870.55232484 607.48855097 867.02605299 605 863.5 C604.00001278 862.08332432 603.00001278 860.66665764 602 859.25 C592 845.08333333 582 830.91666667 572 816.75 C571.50516113 816.0489917 571.01032227 815.3479834 570.50048828 814.62573242 C569.49880957 813.20666042 568.4971821 811.78755225 567.49560547 810.3684082 C565.02170505 806.86324726 562.54696634 803.35868485 560.0703125 799.85546875 C554.09597943 791.40242303 548.14800966 782.93140407 542.21582031 774.44873047 C536.50209106 766.28153281 530.75439256 758.13857528 525 750 C518.04732005 740.16665814 511.11760831 730.31787176 504.21582031 720.44873047 C498.98800803 712.97610194 493.7323662 705.52340376 488.46777344 698.07666016 C485.97679014 694.55232484 483.48855097 691.02605299 481 687.5 C480.00001278 686.08332432 479.00001278 684.66665764 478 683.25 C472 674.75 466 666.25 460 657.75 C459.50516113 657.0489917 459.01032227 656.3479834 458.50048828 655.62573242 C457.49880957 654.20666042 456.4971821 652.78755225 455.49560547 651.3684082 C453.02170505 647.86324726 450.54696634 644.35868485 448.0703125 640.85546875 C447.08846912 639.4661971 446.10669871 638.07687388 445.125 636.6875 C444.63443115 635.99325928 444.1438623 635.29901855 443.63842773 634.58374023 C440.9453369 630.76863711 438.26196949 626.94700813 435.58984375 623.1171875 C429.89094058 614.94973732 424.16542984 606.80802769 418.3125 598.75 C413.81058613 592.55057673 409.41157194 586.29239105 405.09082031 579.96557617 C400.30663823 572.96511568 395.40888661 566.04648579 390.50732422 559.12792969 C381.29159497 546.11783961 372.13643818 533.06585812 363 520 C360.69 516.7 358.38 513.4 356 510 C355.67 892.47 355.34 1274.94 355 1669 C237.85 1669 120.7 1669 0 1669 C0 1118.23 0 567.46 0 0 Z " fill="#000000" transform="translate(0,0)"/>
<path d="M0 0 C3.72381117 3.50848876 6.63130932 7.14642679 9.3984375 11.45703125 C10.27620032 12.79822445 11.15483463 14.13884756 12.03417969 15.47900391 C12.74471497 16.56595551 12.74471497 16.56595551 13.46960449 17.67486572 C16.28876866 21.95802992 19.16746165 26.2011139 22.0390625 30.44921875 C23.29173194 32.30529449 24.5443353 34.16141483 25.796875 36.01757812 C27.07287526 37.90758004 28.34891717 39.79755383 29.625 41.6875 C43.75273452 62.61291154 43.75273452 62.61291154 49.91552734 71.88012695 C54.32560232 78.48077677 58.78160233 85.05063102 63.22729492 91.62731934 C71.35114018 103.64638114 79.47206766 115.66657951 87.5 127.75 C92.85117327 135.80150481 98.2523992 143.81742845 103.6875 151.8125 C111.91870778 163.92208329 120.12347417 176.04934781 128.3125 188.1875 C129.24644089 189.57180206 129.24644089 189.57180206 130.19924927 190.98406982 C138.37830832 203.11064016 146.52375182 215.25882293 154.625 227.4375 C161.8117237 238.2413217 169.05049187 249.00694558 176.34863281 259.73583984 C186.69473169 274.94789747 196.96507118 290.21112926 207.24703979 305.46656799 C211.74406007 312.13836616 216.24436536 318.80794039 220.74609375 325.4765625 C242.39247169 357.54586508 242.39247169 357.54586508 252.32495117 372.49707031 C257.98008105 380.99831523 263.71557726 389.44427759 269.45159912 397.89102173 C277.46364814 409.6927622 285.39151958 421.54920645 293.27783203 433.43530273 C297.62042181 439.97399693 302.00154925 446.48169255 306.4609375 452.94140625 C312.53988241 461.7474291 318.46000212 470.65614666 324.375 479.57275391 C329.81147463 487.7641466 335.29825291 495.9146855 340.88406372 504.00505066 C346.4306933 512.05213932 351.82190658 520.2020546 357.22412109 528.34643555 C363.06411738 537.14656015 368.9660766 545.89994585 374.94068909 554.60928345 C381.44881359 564.10102247 387.88087136 573.64383397 394.3125 583.1875 C394.94784668 584.1297644 395.58319336 585.07202881 396.23779297 586.04284668 C403.97037192 597.51122177 411.68040901 608.99353486 419.33642578 620.51318359 C424.41221826 628.14102039 429.54414728 635.73016095 434.6875 643.3125 C473.2837576 700.21236211 473.2837576 700.21236211 489.30712891 724.46435547 C490.58594649 726.37981544 491.88313044 728.28303113 493.18896484 730.18017578 C493.92453613 731.25638184 494.66010742 732.33258789 495.41796875 733.44140625 C496.10012451 734.42955322 496.78228027 735.4177002 497.48510742 736.43579102 C499 739 499 739 499 742 C446.59084036 742.38916242 394.18182678 742.68868934 341.77150632 742.8681106 C335.58318284 742.88937246 329.39486221 742.91137595 323.20654297 742.93383789 C321.97456679 742.93829717 320.74259062 742.94275645 319.47328183 742.94735085 C299.52847861 743.02131173 279.5845089 743.15534154 259.64020005 743.31159753 C239.17340952 743.47060888 218.70705531 743.56500616 198.23967242 743.59950441 C185.6109481 743.62282464 172.98457955 743.69645267 160.35658053 743.83457994 C151.69542331 743.92448768 143.03548267 743.95159307 134.37389275 743.92952342 C129.37648349 743.91863863 124.3831871 743.9352331 119.38651085 744.02649307 C87.81437866 744.57516501 87.81437866 744.57516501 81.07353973 738.30755424 C78.2521205 734.84322649 76.39997657 731.24085527 74.83551359 727.07242572 C73.56891926 723.93073815 71.72480169 721.43221842 69.75 718.6875 C68.49817048 716.79287421 67.24815941 714.89704563 66 713 C61.42873405 706.09530267 56.8169595 699.23580326 52 692.5 C46.45953677 684.75248411 41.1994026 676.82942999 35.93945312 668.88964844 C31.40747017 662.06555307 26.76670744 655.33487137 22.01342773 648.66357422 C18.63817258 643.92281968 15.37875922 639.11842563 12.171875 634.26171875 C7.75197919 627.62392558 3.21583425 621.06436007 -1.29443359 614.48779297 C-4.03256176 610.49387285 -6.76614338 606.49684465 -9.5 602.5 C-12.70190801 597.81947797 -15.90426443 593.13926725 -19.109375 588.4609375 C-25.2568403 579.48563816 -31.38535302 570.49769417 -37.5 561.5 C-45.94967468 549.06674571 -54.41961064 536.6475999 -62.94677734 524.26733398 C-69.55424974 514.6730068 -76.10096563 505.03768409 -82.6484375 495.40234375 C-91.33805695 482.61497617 -100.0386524 469.83525916 -108.80712891 457.10180664 C-115.89470813 446.80262753 -122.91863582 436.45976718 -129.95703125 426.12695312 C-136.55456273 416.4422 -143.15552656 406.7602075 -149.80224609 397.10913086 C-154.32817985 390.53282455 -158.8220603 383.93474302 -163.31689453 377.3371582 C-167.32889652 371.44886885 -171.34845512 365.56585186 -175.375 359.6875 C-181.11349365 351.30759054 -186.82764484 342.91123225 -192.53344727 334.5090332 C-196.10394953 329.25244921 -199.6815619 324.00105014 -203.27734375 318.76171875 C-204.29658936 317.27442261 -204.29658936 317.27442261 -205.33642578 315.75708008 C-206.61512711 313.89210983 -207.89591489 312.0285677 -209.17919922 310.16674805 C-212.34458448 305.5460997 -215.30502727 300.91083919 -218 296 C-172.5 234.25 -172.5 234.25 -170.74975586 231.87475586 C-169.58379194 230.29231815 -168.41793896 228.70979869 -167.25219727 227.12719727 C-164.32568557 223.15448113 -161.39722466 219.18323006 -158.46484375 215.21484375 C-152.72576518 207.44400126 -147.01570381 199.65511304 -141.375 191.8125 C-136.83158862 185.49578305 -132.20716413 179.24819713 -127.51904297 173.03833008 C-123.77967771 168.07234992 -120.12709355 163.04842752 -116.5 158 C-111.93297337 151.64543441 -107.29547768 145.35193997 -102.58544922 139.1027832 C-96.92566141 131.58873583 -91.35849587 124.00706691 -85.78662109 116.42773438 C-84.01285994 114.01747461 -82.23556356 111.60986576 -80.45703125 109.203125 C-74.71995633 101.43661942 -69.01312577 93.65119925 -63.375 85.8125 C-58.84888759 79.52222468 -54.25017127 73.2935626 -49.5871582 67.10424805 C-41.05195158 55.7700183 -32.66087639 44.33006737 -24.375 32.8125 C-18.8187002 25.08978404 -13.1447875 17.46144714 -7.41064453 9.87011719 C-4.93309585 6.5855857 -2.4669468 3.29249774 0 0 Z " fill="#000000" transform="translate(1901,927)"/>
</svg>
